<svg width="20" height="20" viewBox="0 0 20 20" fill="none" xmlns="http://www.w3.org/2000/svg">
<path d="M9.25298 4.90419H10.747M12.249 8.5402L7.75099 15.0881M16 18H4V6.36013L8.49801 2H11.502L16 6.36013V18Z" stroke="black" stroke-miterlimit="10"/>
<path d="M7.37401 9.71104C7.4732 9.71104 7.56833 9.67359 7.63847 9.60691C7.70861 9.54024 7.74801 9.44981 7.74801 9.35552C7.74801 9.26123 7.70861 9.1708 7.63847 9.10413C7.56833 9.03746 7.4732 9 7.37401 9C7.27481 9 7.17968 9.03746 7.10954 9.10413C7.0394 9.1708 7 9.26123 7 9.35552C7 9.44981 7.0394 9.54024 7.10954 9.60691C7.17968 9.67359 7.27481 9.71104 7.37401 9.71104ZM12.626 14C12.7252 14 12.8203 13.9625 12.8905 13.8959C12.9606 13.8292 13 13.7388 13 13.6445C13 13.5502 12.9606 13.4598 12.8905 13.3931C12.8203 13.3264 12.7252 13.289 12.626 13.289C12.5268 13.289 12.4317 13.3264 12.3615 13.3931C12.2914 13.4598 12.252 13.5502 12.252 13.6445C12.252 13.7388 12.2914 13.8292 12.3615 13.8959C12.4317 13.9625 12.5268 14 12.626 14Z" stroke="black" stroke-miterlimit="10"/>
</svg>
