<svg width="20" height="20" viewBox="0 0 20 20" fill="none" xmlns="http://www.w3.org/2000/svg">
<path fill-rule="evenodd" clip-rule="evenodd" d="M10 7.1875C10 7.1875 11.5533 7.1875 12.6516 8.28585C12.6516 8.28585 13.75 9.3842 13.75 10.9375C13.75 10.9375 13.75 12.4908 12.6516 13.5892C12.6516 13.5892 11.5533 14.6875 10 14.6875C10 14.6875 8.4467 14.6875 7.34835 13.5892C7.34835 13.5892 6.25 12.4908 6.25 10.9375C6.25 10.9375 6.25 9.3842 7.34835 8.28585C7.34835 8.28585 8.4467 7.1875 10 7.1875ZM10 8.4375C10 8.4375 8.96447 8.4375 8.23223 9.16973C8.23223 9.16973 7.5 9.90197 7.5 10.9375C7.5 10.9375 7.5 11.973 8.23223 12.7053C8.23223 12.7053 8.96447 13.4375 10 13.4375C10 13.4375 11.0355 13.4375 11.7678 12.7053C11.7678 12.7053 12.5 11.973 12.5 10.9375C12.5 10.9375 12.5 9.90197 11.7678 9.16973C11.7678 9.16973 11.0355 8.4375 10 8.4375Z" fill="black"/>
<path d="M18.5617 11.3114L18.5619 11.3117C18.6612 11.4444 18.8091 11.5324 18.9731 11.5561C19.0028 11.5604 19.0326 11.5625 19.0626 11.5625L19.0637 11.5625C19.1982 11.5623 19.329 11.5187 19.4367 11.4381C19.5946 11.3201 19.6876 11.1346 19.6876 10.9375L19.6875 10.9304C19.686 10.7979 19.6425 10.6694 19.5632 10.5633L19.5627 10.5626C18.8114 9.55781 17.6892 8.99671 17.6892 8.99671C16.5666 8.43541 15.3115 8.43751 15.3115 8.43751L15.3126 8.43751C15.6577 8.43751 15.9376 8.71733 15.9376 9.06251C15.9376 9.40714 15.6586 9.68674 15.314 9.68751L18.5617 11.3114Z" fill="black"/>
<path d="M2.86987 10.1147C3.72754 9.6859 4.68645 9.68751 4.68645 9.68751L4.68733 9.68751H4.6875C4.69716 9.68751 4.70683 9.68728 4.71648 9.68684C4.87169 9.67963 5.01865 9.61487 5.1287 9.50519C5.24611 9.38817 5.31222 9.22931 5.3125 9.06355L5.3125 9.06269V9.06251C5.3125 9.02471 5.30907 8.98699 5.30226 8.94981C5.24792 8.65343 4.98986 8.43801 4.68855 8.43751L4.6875 8.43751C3.43298 8.43564 2.31085 8.99671 2.31085 8.99671C1.18865 9.55781 0.437406 10.5626 0.437406 10.5626L0.436954 10.5632C0.35613 10.6714 0.3125 10.8026 0.3125 10.9375L0.312534 10.9441C0.312825 10.9718 0.314962 10.9995 0.31893 11.0269C0.342647 11.191 0.430562 11.3389 0.563337 11.4381C0.671371 11.5189 0.802626 11.5625 0.9375 11.5625C0.945856 11.5625 0.954211 11.5623 0.962561 11.562C1.1507 11.5545 1.32541 11.4625 1.43813 11.3117C2.01219 10.5436 2.86987 10.1147 2.86987 10.1147Z" fill="black"/>
<path d="M12.3217 15.3549C13.3867 16.02 13.9378 17.1481 13.9378 17.1481L13.9382 17.1488L13.9384 17.1492C14.0432 17.3638 14.2611 17.5 14.5 17.5L14.5171 17.4997C14.6063 17.4973 14.694 17.4757 14.7742 17.4366C14.9889 17.3318 15.125 17.1138 15.125 16.875L15.1248 16.8578C15.1223 16.7686 15.1008 16.6809 15.0616 16.6007L15.0614 16.6002C14.353 15.1498 12.9839 14.2947 12.9839 14.2947C11.6145 13.4395 10 13.4395 10 13.4395C8.38551 13.4395 7.01614 14.2947 7.01614 14.2947C5.64701 15.1498 4.93862 16.6002 4.93862 16.6002L4.9384 16.6007C4.89668 16.6861 4.875 16.7799 4.875 16.875L4.87505 16.8831C4.87592 16.9495 4.88736 17.0154 4.90896 17.0782C4.96285 17.2349 5.07681 17.3638 5.22576 17.4366C5.31117 17.4783 5.40496 17.5 5.5 17.5L5.51435 17.4998C5.74797 17.4944 5.95909 17.3592 6.06162 17.1492C6.61282 16.0204 7.6783 15.3549 7.6783 15.3549C8.74379 14.6895 10 14.6895 10 14.6895C11.2562 14.6895 12.3217 15.3549 12.3217 15.3549Z" fill="black"/>
<path d="M6.05158 5.27872C6.42465 5.67581 6.52681 6.211 6.52681 6.211C6.55789 6.37382 6.65238 6.51762 6.78949 6.61078C6.8931 6.68117 7.01547 6.71881 7.14073 6.71881L7.14478 6.7188C7.18275 6.71855 7.22062 6.71485 7.25791 6.70773C7.55258 6.65148 7.76573 6.3938 7.76573 6.09381L7.76572 6.09029C7.7655 6.05214 7.76179 6.01409 7.75464 5.97662C7.58438 5.08464 6.96259 4.42282 6.96259 4.42282C6.34081 3.761 5.46118 3.53547 5.46118 3.53547C4.58154 3.30994 3.71803 3.59095 3.71803 3.59095C2.85452 3.87196 2.27608 4.57198 2.27608 4.57198C1.69764 5.272 1.58444 6.173 1.58444 6.173C1.47124 7.074 1.85853 7.89536 1.85853 7.89536C2.24583 8.71671 3.01299 9.2026 3.01299 9.2026C3.77988 9.68831 4.6876 9.68756 4.6876 9.68756L4.68824 9.68756C4.854 9.68739 5.0129 9.62138 5.12999 9.50405C5.24693 9.38688 5.3126 9.2281 5.3126 9.06256L5.3126 9.06193C5.31225 8.717 5.03253 8.43756 4.6876 8.43756L4.68697 8.43756C4.14212 8.43811 3.68182 8.14658 3.68182 8.14658C3.22152 7.85505 2.98915 7.36224 2.98915 7.36224C2.75677 6.86943 2.82469 6.32883 2.82469 6.32883C2.89261 5.78823 3.23967 5.36821 3.23967 5.36821C3.58674 4.9482 4.10484 4.7796 4.10484 4.7796C4.62295 4.61099 5.15073 4.74631 5.15073 4.74631C5.67851 4.88163 6.05158 5.27872 6.05158 5.27872Z" fill="black"/>
<path d="M16.3183 8.14658C15.858 8.43811 15.3131 8.43756 15.3131 8.43756L15.3125 8.43756C15.3027 8.43756 15.2929 8.43779 15.2831 8.43825L14.6882 9.09195C14.6955 9.24716 14.7604 9.39407 14.8701 9.50405C14.9872 9.62138 15.1461 9.68739 15.3119 9.68756L15.3125 9.68756C16.2202 9.68831 16.9871 9.2026 16.9871 9.2026C17.7543 8.71671 18.1416 7.89536 18.1416 7.89536C18.5289 7.074 18.4157 6.173 18.4157 6.173C18.3025 5.272 17.724 4.57198 17.724 4.57198C17.1456 3.87196 16.2821 3.59095 16.2821 3.59095C15.4186 3.30994 14.5389 3.53547 14.5389 3.53547C13.6593 3.761 13.0375 4.42282 13.0375 4.42282C12.4157 5.08464 12.2455 5.97662 12.2455 5.97662C12.2381 6.01525 12.2344 6.05449 12.2344 6.09381C12.2344 6.11259 12.2352 6.13136 12.2369 6.15007C12.262 6.42788 12.4682 6.65542 12.7422 6.70773C12.7808 6.7151 12.8201 6.71881 12.8594 6.71881C12.8782 6.71881 12.8969 6.71796 12.9156 6.71627C13.1934 6.69116 13.421 6.485 13.4733 6.211C13.5755 5.67581 13.9485 5.27872 13.9485 5.27872C14.3216 4.88163 14.8494 4.74631 14.8494 4.74631C15.3771 4.61099 15.8953 4.7796 15.8953 4.7796C16.4134 4.9482 16.7604 5.36821 16.7604 5.36821C17.1075 5.78822 17.1754 6.32883 17.1754 6.32883C17.2433 6.86943 17.011 7.36224 17.011 7.36224C16.7786 7.85505 16.3183 8.14658 16.3183 8.14658Z" fill="black"/>
</svg>
