<svg width="20" height="20" viewBox="0 0 20 20" fill="none" xmlns="http://www.w3.org/2000/svg">
<mask id="mask0_6275_12282" style="mask-type:luminance" maskUnits="userSpaceOnUse" x="1" y="1" width="18" height="18">
<path d="M1 1H19V19H1V1Z" fill="white"/>
</mask>
<g mask="url(#mask0_6275_12282)">
<path d="M13.6563 13.9375H6.84775C6.58436 13.9373 6.32937 13.8448 6.12721 13.6759C5.92506 13.5071 5.78856 13.2727 5.7415 13.0135L3.9475 3.1495C3.92396 3.01986 3.85565 2.9026 3.7545 2.81816C3.65335 2.73373 3.52576 2.68749 3.394 2.6875H2.125M13.6563 13.9375C14.0292 13.9375 14.3869 14.0857 14.6506 14.3494C14.9143 14.6131 15.0625 14.9708 15.0625 15.3438C15.0625 15.7167 14.9143 16.0744 14.6506 16.3381C14.3869 16.6018 14.0292 16.75 13.6563 16.75C13.2833 16.75 12.9256 16.6018 12.6619 16.3381C12.3982 16.0744 12.25 15.7167 12.25 15.3438C12.25 14.9708 12.3982 14.6131 12.6619 14.3494C12.9256 14.0857 13.2833 13.9375 13.6563 13.9375ZM6.90625 16.75C7.27921 16.75 7.6369 16.6018 7.90062 16.3381C8.16434 16.0744 8.3125 15.7167 8.3125 15.3438C8.3125 14.9708 8.16434 14.6131 7.90062 14.3494C7.6369 14.0857 7.27921 13.9375 6.90625 13.9375C6.53329 13.9375 6.17561 14.0857 5.91188 14.3494C5.64816 14.6131 5.5 14.9708 5.5 15.3438C5.5 15.7167 5.64816 16.0744 5.91188 16.3381C6.17561 16.6018 6.53329 16.75 6.90625 16.75Z" stroke="black" stroke-linecap="round" stroke-linejoin="round"/>
<path d="M5.398 11.125H14.2255C14.489 11.125 14.7442 11.0325 14.9465 10.8637C15.1488 10.6948 15.2854 10.4603 15.3325 10.201L16.1875 5.5H4.375" stroke="black" stroke-linecap="round" stroke-linejoin="round"/>
</g>
</svg>
