<svg width="20" height="20" viewBox="0 0 20 20" fill="none" xmlns="http://www.w3.org/2000/svg">
<path d="M13.5 3H4.4L3 6.43472C3.02247 6.86862 3.21855 7.27627 3.54562 7.56907C3.8727 7.86187 4.30432 8.01613 4.74667 7.99833C5.19014 8.01791 5.62348 7.86444 5.95201 7.57146C6.28053 7.27848 6.47755 6.8698 6.5 6.43472C6.52245 6.8698 6.71947 7.27848 7.048 7.57146C7.37652 7.86444 7.80986 8.01791 8.25333 7.99833C8.69568 8.01613 9.1273 7.86187 9.45438 7.56907C9.78145 7.27627 9.97753 6.86862 10 6.43472C10.0225 6.86862 10.2186 7.27627 10.5456 7.56907C10.8727 7.86187 11.3043 8.01613 11.7467 7.99833C12.1901 8.01791 12.6235 7.86444 12.952 7.57146C13.2805 7.27848 13.4775 6.8698 13.5 6.43472C13.5225 6.8698 13.7195 7.27848 14.048 7.57146C14.3765 7.86444 14.8099 8.01791 15.2533 7.99833C15.6957 8.01613 16.1273 7.86187 16.4544 7.56907C16.7814 7.27627 16.9775 6.86862 17 6.43472L15.6 3H13.5Z" stroke="black" stroke-miterlimit="10"/>
<path d="M6.33188 6.82L6.43668 6.28667L7.0655 3M13.6681 6.82L12.9345 3M10 3V6.82M16.0017 8.09333V17H3.99825V8.09333M2 17H18" stroke="black" stroke-miterlimit="10"/>
<path d="M4 13.6682H7.33178M12.6682 13.6682H16M7.33178 11H12.6682V17H7.33178V11Z" stroke="black" stroke-miterlimit="10"/>
</svg>
